<svg width="181" height="18" viewBox="0 0 181 18" fill="none" xmlns="http://www.w3.org/2000/svg">
<g id="Link &#226;&#134;&#146; SVG">
<path id="Vector" fill-rule="evenodd" clip-rule="evenodd" d="M10.2236 10.0259L7.72276 3.95046L5.2667 10.0259H10.2236ZM10.8803 11.6478H4.60993L2.28491 17.3717H0.376953L7.17468 0.749756H10.1357L16.9557 17.3717H13.2261L10.8803 11.6478Z" fill="white"/>
<path id="Vector_2" fill-rule="evenodd" clip-rule="evenodd" d="M20.4795 0.749756H24.3162L29.6438 12.8319L34.973 0.749756H36.9241L29.5783 17.3717H27.8461L20.4795 0.749756Z" fill="white"/>
<path id="Vector_3" fill-rule="evenodd" clip-rule="evenodd" d="M50.2825 10.0259L47.7835 3.95046L45.3274 10.0259H50.2825ZM50.9407 11.6478H44.6687L42.3456 17.3717H40.4375L47.2353 0.749756H50.1946L57.0147 17.3717H53.2868L50.9407 11.6478Z" fill="white"/>
<path id="Vector_4" fill-rule="evenodd" clip-rule="evenodd" d="M76.7415 11.9994V0.749756H78.5181V17.3717H76.7415L66.04 5.90317V17.3717H64.2646V0.749756H66.04L76.7415 11.9994Z" fill="white"/>
<path id="Vector_5" fill-rule="evenodd" clip-rule="evenodd" d="M91.7922 2.37168H85.8491V0.749756H101.242V2.37168H95.2996V17.3717H91.7922V2.37168Z" fill="white"/>
<path id="Vector_6" fill-rule="evenodd" clip-rule="evenodd" d="M108.653 16.9546L107.755 11.4513H108.741L110.539 15.0019C111.087 16.0774 112.207 16.2532 113.435 16.2532C115.122 16.2532 116.504 15.3982 116.504 13.7747C116.504 12.1528 115.385 11.3187 113.281 10.6171L112.075 10.2225C109.334 9.32282 107.864 7.63537 107.864 5.09141C107.864 1.86833 111.023 0.289551 114.334 0.289551C115.539 0.289551 116.856 0.442954 117.907 0.81528L118.872 6.03421H117.885L116.022 2.52509C115.649 1.82359 114.729 1.69256 113.807 1.69256C112.25 1.69256 110.934 2.50432 110.934 4.03836C110.934 5.11378 111.439 6.16523 113.061 6.69257L114.267 7.08725C117.447 8.11792 119.662 9.41069 119.662 12.5475C119.662 15.8137 116.395 17.6562 113.259 17.6562C111.549 17.6562 110.124 17.4804 108.653 16.9546Z" fill="white"/>
<path id="Vector_7" fill-rule="evenodd" clip-rule="evenodd" d="M131.725 2.37168H125.782V0.749756H141.177V2.37168H135.234V17.3717H131.725V2.37168Z" fill="white"/>
<path id="Vector_8" fill-rule="evenodd" clip-rule="evenodd" d="M154.203 10.0259L151.704 3.95046L149.248 10.0259H154.203ZM154.859 11.6478H148.589L146.264 17.3717H144.358L151.156 0.749756H154.115L160.935 17.3717H157.207L154.859 11.6478Z" fill="white"/>
<path id="Vector_9" fill-rule="evenodd" clip-rule="evenodd" d="M174.041 17.3717H170.532V9.87089L163.802 0.749756H167.923L173.23 7.98529L178.624 0.749756H180.774L174.041 9.89327V17.3717Z" fill="white"/>
</g>
</svg>
