<svg width="19" height="33" viewBox="0 0 19 33" fill="none" xmlns="http://www.w3.org/2000/svg">
<path id="Vector" d="M17.6207 29.7825C17.7545 29.9163 17.8606 30.0752 17.933 30.25C18.0054 30.4248 18.0427 30.6121 18.0427 30.8013C18.0427 30.9906 18.0054 31.1779 17.933 31.3527C17.8606 31.5275 17.7545 31.6864 17.6207 31.8202C17.4869 31.9539 17.3281 32.0601 17.1532 32.1325C16.9784 32.2049 16.7911 32.2422 16.6019 32.2422C16.4127 32.2422 16.2253 32.2049 16.0505 32.1325C15.8757 32.0601 15.7169 31.9539 15.5831 31.8202L1.18307 17.4201C1.04919 17.2864 0.942976 17.1276 0.870509 16.9528C0.798042 16.778 0.760742 16.5906 0.760742 16.4013C0.760742 16.2121 0.798042 16.0247 0.870509 15.8499C0.942976 15.6751 1.04919 15.5163 1.18307 15.3825L15.5831 0.982548C15.8533 0.712345 16.2198 0.560547 16.6019 0.560547C16.984 0.560547 17.3505 0.712345 17.6207 0.982548C17.8909 1.25275 18.0427 1.61922 18.0427 2.00135C18.0427 2.38347 17.8909 2.74994 17.6207 3.02015L4.23767 16.4013L17.6207 29.7825Z" fill="#DADADA"/>
</svg>
